Coordinates
version=1
nRows=5
nColumns=63
inDegrees=yes

Units are S.I. units (second, meters, Newtons, ...)
If the header above contains a line with 'inDegrees', this indicates whether rotational values are in degrees (yes) or radians (no).

endheader
time	pelvis_tilt	pelvis_list	pelvis_rotation	pelvis_tx	pelvis_ty	pelvis_tz	hip_flexion_r	hip_adduction_r	hip_rotation_r	knee_angle_r	knee_angle_r_beta	ankle_angle_r	subtalar_angle_r	mtp_angle_r	hip_flexion_l	hip_adduction_l	hip_rotation_l	knee_angle_l	knee_angle_l_beta	ankle_angle_l	subtalar_angle_l	mtp_angle_l	L5_S1_Flex_Ext	L5_S1_Lat_Bending	L5_S1_axial_rotation	L4_L5_Flex_Ext	L4_L5_Lat_Bending	L4_L5_axial_rotation	L3_L4_Flex_Ext	L3_L4_Lat_Bending	L3_L4_axial_rotation	L2_L3_Flex_Ext	L2_L3_Lat_Bending	L2_L3_axial_rotation	L1_L2_Flex_Ext	L1_L2_Lat_Bending	L1_L2_axial_rotation	L1_T12_Flex_Ext	L1_T12_Lat_Bending	L1_T12_axial_rotation	Abs_r3	Abs_r2	Abs_r1	Abs_t1	Abs_t2	neck_flexion	neck_bending	neck_rotation	arm_flex_r	arm_add_r	arm_rot_r	elbow_flex_r	pro_sup_r	wrist_flex_r	wrist_dev_r	arm_flex_l	arm_add_l	arm_rot_l	elbow_flex_l	pro_sup_l	wrist_flex_l	wrist_dev_l
      0.00000000	     -0.15512814	     -6.91142997	     96.01013073	      0.28631045	      0.82350503	      0.81089061	     -3.64681251	      1.35706870	      4.93520219	      6.72966379	      0.11745479	     21.74629106	     -5.46191522	      0.00000000	     -4.20479351	     -2.11919964	      0.79361551	      4.92755276	      0.08600202	     25.52988160	     -2.58481650	      0.00000000	     -0.05717829	      0.20843030	      0.19931685	     -0.10618581	      0.27721230	      0.21177415	     -0.09393822	      0.50677744	      0.21177415	     -0.06534907	      0.50677744	      0.17440224	     -0.05309576	      0.42503107	      0.16194494	     -0.03267168	      0.32285854	      0.14948764	     -0.40841883	      2.35780526	      1.10854053	      0.00000000	      0.00000000	     18.04045139	     -1.26819267	      9.15359525	     18.57048528	     -1.41449106	     82.77159327	     32.71607010	     86.74067488	      5.98661696	     -1.22737113	     17.12420164	     -9.35522260	     72.65778780	     43.22988832	     86.43052759	     -2.17722045	     15.66044754
      0.01694915	     -0.01464125	     -7.21231759	     96.07760899	      0.28667791	      0.82270622	      0.81147967	     -3.18249056	      1.45428979	      3.94169695	      6.96344290	      0.12153501	     22.34604927	     -4.34770311	      0.00000000	     -3.68826212	     -2.34610884	     -2.53837331	      5.93421629	      0.10357161	     25.86485787	      0.79726935	      0.00000000	     -0.03593491	      0.20060630	      0.31595695	     -0.06673473	      0.26680638	      0.33570426	     -0.05903747	      0.48775416	      0.33570426	     -0.04107001	      0.48775416	      0.27646234	     -0.03336916	      0.40907637	      0.25671503	     -0.02053321	      0.31073916	      0.23696772	     -0.25667949	      2.26929858	      1.75725780	      0.00000000	      0.00000000	     18.69474441	     -1.26148341	      7.88762375	     18.02370214	     -1.83015350	     80.56289712	     33.55487771	     87.23659187	      6.21997074	     -0.32937649	     16.96095958	     -8.83152559	     70.98567644	     42.82987552	     84.14441751	      0.88145206	     17.07858806
      0.03389831	      0.03506114	     -7.48185071	     96.03928210	      0.28707338	      0.82220610	      0.81189161	     -2.78239275	      1.44651920	      3.31938598	      7.13546637	      0.12453738	     22.80534584	     -3.40145345	      0.00000000	     -3.30052716	     -2.49540640	     -5.14934255	      6.51246761	      0.11366400	     26.22549441	      3.63277814	      0.00000000	     -0.01233365	      0.18835325	      0.40297656	     -0.02290483	      0.25050983	      0.42816260	     -0.02026296	      0.45796210	      0.42816260	     -0.01409613	      0.45796210	      0.35260449	     -0.01145303	      0.38408996	      0.32741846	     -0.00704745	      0.29175919	      0.30223242	     -0.08809805	      2.13068968	      2.24123476	      0.00000000	      0.00000000	     19.16044396	     -1.34010020	      7.03647172	     17.86512233	     -1.97092857	     79.76997499	     33.86551418	     87.40706894	      6.14032849	      0.18585176	     17.01107661	     -8.47210639	     70.61465040	     42.36952899	     80.69425979	      2.36347519	     18.04964798
      0.05084746	      0.06240469	     -7.56297978	     96.04491288	      0.28727966	      0.82205335	      0.81210909	     -2.65290197	      1.49579259	      3.40450648	      7.18294224	      0.12536599	     22.93399403	     -3.59421470	      0.00000000	     -3.17705664	     -2.51422148	     -5.37257195	      6.70915727	      0.11709688	     26.41717375	      3.68263845	      0.00000000	     -0.01037988	      0.17951401	      0.44593977	     -0.01927647	      0.23875363	      0.47381101	     -0.01705310	      0.43647037	      0.47381101	     -0.01186316	      0.43647037	      0.39019730	     -0.00963875	      0.36606497	      0.36232607	     -0.00593106	      0.27806720	      0.33445483	     -0.07414242	      2.03069840	      2.48018324	      0.00000000	      0.00000000	     19.35882020	     -1.22631593	      6.41231889	     18.00634178	     -1.96545178	     79.85034213	     33.83929327	     87.38259901	      6.11604692	      0.57187223	     17.20695924	     -8.33527925	     71.09074236	     42.08388774	     77.74702746	      2.71726217	     18.32305268
      0.06779661	      0.01396709	     -7.62932144	     95.90230994	      0.28757343	      0.82205106	      0.81216842	     -2.49571867	      1.37674920	      2.65178996	      7.32219971	      0.12779649	     23.38633436	     -2.22223835	      0.00000000	     -3.11860545	     -2.46256445	     -5.92722809	      6.68147220	      0.11661369	     26.80043513	      4.29891561	      0.00000000	     -0.00695647	      0.16623581	      0.50068682	     -0.01291887	      0.22109363	      0.53197975	     -0.01142879	      0.40418575	      0.53197975	     -0.00795055	      0.40418575	      0.43810097	     -0.00645978	      0.33898806	      0.40680804	     -0.00397493	      0.25749927	      0.37551512	     -0.04968940	      1.88049272	      2.78466991	      0.00000000	      0.00000000	     19.51081578	     -1.16938882	      6.06024937	     18.23317093	     -1.84986976	     80.18604485	     33.54536223	     87.28021060	      6.25861271	      0.72815223	     17.49795870	     -8.24090624	     72.11551585	     41.81515144	     74.90482775	      2.41828967	     18.42988344
